# xmcd CD database file
#
# Track frame offsets:
#	150
#	82360
#	156516
#	177385
#	234183
#
# Disc length: 3344 seconds
#
# Revision: 0
# Processed by: cddbd v1.5.1PL2 Copyright (c) Steve Scherf et al.
# Submitted via: CDex 1.51
#
DISCID=3c0d0e05
DTITLE=Flaherty - Corsano - Yeh - A Rock In The Snow
DYEAR=2006
DGENRE=Jazz
TTITLE0=We Have To Check Your Equipment For Bombs
TTITLE1=Do You Have Any Prurient Releases?
TTITLE2=Dirty Firetrucker
TTITLE3=Sixteen Waltzes In Seventeen Seconds
TTITLE4=Swamp-Like Heartache
EXTD=YEAR: 2006
EXTT0=
EXTT1=
EXTT2=
EXTT3=
EXTT4=
PLAYORDER=
